<svg width="150" height="90" viewBox="0 0 237 90" fill="none" xmlns="http://www.w3.org/2000/svg">
<mask id="mask0_9_8" style="mask-type:alpha" maskUnits="userSpaceOnUse" x="0" y="0" width="237" height="90">
<path d="M27.5155 69.1709C23.3754 69.1709 19.5857 68.6613 16.1462 67.6422C12.7705 66.6231 9.74506 65.1263 7.06995 63.1518C4.45853 61.1774 2.10188 58.7889 0 55.9864L8.98075 45.7636C12.1017 50.0947 15.1908 53.0565 18.2481 54.6488C21.3691 56.1774 24.7448 56.9418 28.3753 56.9418C30.3498 56.9418 32.1014 56.687 33.63 56.1774C35.2224 55.6042 36.4644 54.808 37.3561 53.7889C38.2478 52.7698 38.6936 51.5597 38.6936 50.1584C38.6936 49.1393 38.4707 48.2158 38.0249 47.3878C37.579 46.4961 36.9421 45.7317 36.1141 45.0948C35.286 44.3942 34.2988 43.7891 33.1523 43.2796C32.0058 42.7063 30.732 42.2286 29.3307 41.8465C27.9295 41.4006 26.4008 41.0503 24.7448 40.7955C21.178 39.9675 18.057 38.9803 15.3819 37.8338C12.7068 36.6236 10.4775 35.1587 8.69413 33.4389C6.91071 31.6555 5.57316 29.6492 4.68145 27.4199C3.85344 25.1907 3.43943 22.6748 3.43943 19.8723C3.43943 17.0061 4.07637 14.3628 5.35023 11.9425C6.6241 9.45845 8.37566 7.32472 10.6049 5.54131C12.8979 3.7579 15.5093 2.3885 18.4392 1.4331C21.4328 0.477699 24.5856 0 27.8976 0C31.974 0 35.5408 0.477699 38.5981 1.4331C41.6554 2.3248 44.2986 3.63051 46.5279 5.35023C48.8209 7.06995 50.7317 9.17183 52.2603 11.6559L43.184 20.4455C41.8465 18.6621 40.3815 17.1653 38.7892 15.9552C37.2605 14.745 35.5727 13.8533 33.7256 13.28C31.9422 12.6431 30.0951 12.3246 28.1843 12.3246C26.0824 12.3246 24.2671 12.6113 22.7385 13.1845C21.2098 13.694 19.9997 14.4584 19.108 15.4775C18.28 16.4965 17.8659 17.7386 17.8659 19.2035C17.8659 20.35 18.1526 21.3691 18.7258 22.2608C19.299 23.1525 20.1271 23.9487 21.2098 24.6493C22.2926 25.2862 23.5983 25.8595 25.127 26.369C26.6556 26.8785 28.3435 27.3244 30.1906 27.7066C33.6937 28.4072 36.8465 29.3307 39.649 30.4772C42.4515 31.6237 44.84 33.0249 46.8145 34.681C48.8527 36.2733 50.4132 38.1841 51.496 40.4134C52.5788 42.5789 53.1202 45.0311 53.1202 47.7699C53.1202 52.2921 52.0374 56.1456 49.8718 59.3302C47.7062 62.5149 44.7126 64.9671 40.8911 66.6868C37.0695 68.3428 32.6109 69.1709 27.5155 69.1709Z" fill="black"/>
<path d="M64.1893 89.2342V17.6749H77.2783L77.6605 29.0441L75.1764 28.1843C75.6223 26.1461 76.7051 24.2671 78.4248 22.5474C80.2082 20.8277 82.4056 19.4264 85.017 18.3437C87.6284 17.2609 90.3673 16.7195 93.2335 16.7195C97.6283 16.7195 101.514 17.866 104.889 20.1589C108.329 22.3882 111.036 25.4773 113.01 29.4263C115.048 33.3116 116.067 37.8019 116.067 42.8974C116.067 47.9292 115.08 52.4195 113.106 56.3685C111.131 60.3175 108.424 63.4385 104.985 65.7314C101.545 67.9607 97.6283 69.0753 93.2335 69.0753C90.3036 69.0753 87.5011 68.5339 84.8259 67.4511C82.2145 66.3047 79.9853 64.8079 78.1382 62.9608C76.2911 61.1137 75.1446 59.1392 74.6987 57.0373L77.8515 55.6997V89.2342H64.1893ZM90.1762 57.4194C92.6602 57.4194 94.8576 56.8144 96.7684 55.6042C98.6792 54.394 100.176 52.7062 101.259 50.5406C102.342 48.3113 102.883 45.7636 102.883 42.8974C102.883 40.0312 102.342 37.5153 101.259 35.3497C100.176 33.1842 98.6792 31.4963 96.7684 30.2861C94.9213 29.076 92.7239 28.4709 90.1762 28.4709C87.6284 28.4709 85.3992 29.076 83.4884 30.2861C81.5776 31.4326 80.0808 33.1205 78.998 35.3497C77.9152 37.5153 77.3738 40.0312 77.3738 42.8974C77.3738 45.7636 77.9152 48.3113 78.998 50.5406C80.0808 52.7062 81.5776 54.394 83.4884 55.6042C85.3992 56.8144 87.6284 57.4194 90.1762 57.4194Z" fill="black"/>
<path d="M149.83 69.1709C144.671 69.1709 140.053 68.0562 135.977 65.827C131.964 63.534 128.78 60.413 126.423 56.4641C124.13 52.5151 122.984 47.9929 122.984 42.8974C122.984 37.8019 124.13 33.3116 126.423 29.4263C128.78 25.4773 131.964 22.3563 135.977 20.0634C140.053 17.7704 144.671 16.6239 149.83 16.6239C154.926 16.6239 159.48 17.7704 163.493 20.0634C167.569 22.3563 170.754 25.4773 173.047 29.4263C175.339 33.3116 176.486 37.8019 176.486 42.8974C176.486 47.9929 175.339 52.5151 173.047 56.4641C170.754 60.413 167.569 63.534 163.493 65.827C159.48 68.0562 154.926 69.1709 149.83 69.1709ZM149.83 57.3239C152.314 57.3239 154.544 56.7188 156.518 55.5087C158.493 54.2348 160.021 52.5151 161.104 50.3495C162.251 48.1202 162.824 45.6362 162.824 42.8974C162.824 40.0949 162.251 37.6109 161.104 35.4453C160.021 33.216 158.493 31.4963 156.518 30.2861C154.544 29.0123 152.314 28.3753 149.83 28.3753C147.283 28.3753 145.022 29.0123 143.047 30.2861C141.073 31.56 139.512 33.2797 138.366 35.4453C137.219 37.6109 136.678 40.0949 136.741 42.8974C136.678 45.6362 137.219 48.1202 138.366 50.3495C139.512 52.5151 141.073 54.2348 143.047 55.5087C145.022 56.7188 147.283 57.3239 149.83 57.3239Z" fill="black"/>
<path d="M191.566 68.2155V4.87253H205.132V68.2155H191.566ZM182.107 29.8084V17.6749H215.451V29.8084H182.107Z" fill="black"/>
<path d="M229.357 69.2664C226.873 69.2664 224.962 68.5658 223.624 67.1645C222.287 65.7633 221.618 63.7569 221.618 61.1455C221.618 58.7889 222.319 56.8781 223.72 55.4131C225.185 53.8845 227.064 53.1202 229.357 53.1202C231.777 53.1202 233.656 53.8208 234.994 55.222C236.331 56.6233 237 58.5978 237 61.1455C237 63.5658 236.299 65.5403 234.898 67.069C233.497 68.5339 231.65 69.2664 229.357 69.2664Z" fill="black"/>
</mask>
<g mask="url(#mask0_9_8)">
<circle cx="60.827" cy="76.1771" r="111.463" fill="#685044"/>
<circle cx="163.083" cy="42.9165" r="63.7245" fill="#E9AFA3"/>
<circle cx="237.974" cy="66.225" r="21.8945" fill="#9D4142"/>
</g>
</svg>
